<?xml version="1.0" encoding="UTF-8"?>
<svg width="1108px" height="662px" viewBox="0 0 1108 662" version="1.1" xmlns="http://www.w3.org/2000/svg" xmlns:xlink="http://www.w3.org/1999/xlink">
    <!-- Generator: Sketch 41.2 (35397) - http://www.bohemiancoding.com/sketch -->
    <title>Group 2</title>
    <desc>Created with Sketch.</desc>
    <defs></defs>
    <g id="Page-1" stroke="none" stroke-width="1" fill="none" fill-rule="evenodd">
        <g id="Group-2">
            <rect id="Rectangle" fill="#FAF7F2" x="0" y="0" width="1108" height="662"></rect>
            <g id="Group" transform="translate(44.000000, 97.503876)">
                <g>
                    <g transform="translate(10.000000, 7.184496)" id="Shape" stroke-opacity="0.8">
                        <path d="M0,271.535318 C504,271.535318 504,90.6666949 1008,90.6666949" stroke="#DD412B" stroke-width="43.4528"></path>
                        <path d="M0,360.731519 C504,360.731519 504,414.995377 1008,414.995377" stroke="#D7F281" stroke-width="43.4528"></path>
                        <path d="M0,316.133418 C504,316.133418 504,252.831036 1008,252.831036" stroke="#FDE282" stroke-width="43.4528"></path>
                        <path d="M0,116.077942 C504,116.077942 504,39.2746782 1008,39.2746782" stroke="#D7F281" stroke-width="30.7013"></path>
                        <path d="M0,179.098809 C504,179.098809 504,363.60336 1008,363.60336" stroke="#D7F281" stroke-width="30.7013"></path>
                        <path d="M0,147.588376 C504,147.588376 504,201.439019 1008,201.439019" stroke="#FDE282" stroke-width="30.7013"></path>
                        <path d="M0,235.382896 C504,235.382896 504,386.027452 1008,386.027452" stroke="#FDE282" stroke-width="12.9952"></path>
                        <path d="M0,441.858727 C504,441.858727 504,132.231384 1008,132.231384" stroke="#DD412B" stroke-width="12.9952"></path>
                        <path d="M0,455.196476 C504,455.196476 504,294.395725 1008,294.395725" stroke="#F29055" stroke-width="12.9952"></path>
                        <path d="M0,468.534226 C504,468.534226 504,456.560066 1008,456.560066" stroke="#DD412B" stroke-width="12.9952"></path>
                        <path d="M0,222.045147 C504,222.045147 504,223.863111 1008,223.863111" stroke="#8BD154" stroke-width="12.9952"></path>
                        <path d="M0,208.707397 C504,208.707397 504,61.6987699 1008,61.6987699" stroke="#F29055" stroke-width="12.9952"></path>
                        <path d="M0,421.706974 C504,421.706974 504,443.592809 1008,443.592809" stroke="#F29055" stroke-width="12.2733"></path>
                        <path d="M0,396.513447 C504,396.513447 504,119.264127 1008,119.264127" stroke="#DD412B" stroke-width="12.2733"></path>
                        <path d="M0,409.11021 C504,409.11021 504,281.428468 1008,281.428468" stroke="#FDE282" stroke-width="12.2733"></path>
                        <path d="M0,36.2381974 C504,36.2381974 504,10.1585559 1008,10.1585559" stroke="#D7F281" stroke-width="9.38545"></path>
                        <path d="M0,45.8710166 C504,45.8710166 504,172.322897 1008,172.322897" stroke="#8BD154" stroke-width="9.38545"></path>
                        <path d="M0,55.5038358 C504,55.5038358 504,334.487238 1008,334.487238" stroke="#8BD154" stroke-width="9.38545"></path>
                        <path d="M0,0.618359985 L1008,0.618359985" stroke="#489B4C" stroke-width="9.20496"></path>
                        <path d="M0,10.0659327 C504,10.0659327 504,162.782701 1008,162.782701" stroke="#489B4C" stroke-width="9.20496"></path>
                        <path d="M0,19.5135054 C504,19.5135054 504,324.947042 1008,324.947042" stroke="#489B4C" stroke-width="9.20496"></path>
                        <path d="M0,80.3214854 C504,80.3214854 504,181.411555 1008,181.411555" stroke="#8BD154" stroke-width="8.32508"></path>
                        <path d="M0,88.8659813 C504,88.8659813 504,343.575896 1008,343.575896" stroke="#489B4C" stroke-width="8.32508"></path>
                        <path d="M0,71.7769895 C504,71.7769895 504,19.2472135 1008,19.2472135" stroke="#F29055" stroke-width="8.32508"></path>
                    </g>
                    <g>
                        <g>
                            <rect id="Rectangle-path" fill="#D3D3D3" x="0" y="3.07906977" width="10" height="28.3427181"></rect>
                            <text id="Greens–EFA" fill="#000000" font-family="Lato-Regular, Lato" font-size="16" font-weight="normal">
                                <tspan x="16" y="16.8287234">Greens–EFA</tspan>
                            </text>
                        </g>
                        <g transform="translate(0.000000, 36.553571)">
                            <rect id="Rectangle-path" fill="#D3D3D3" x="0" y="2.05271318" width="10" height="28.8984576"></rect>
                            <text id="GUE-NGL" fill="#000000" font-family="Lato-Regular, Lato" font-size="16" font-weight="normal">
                                <tspan x="16" y="16.0802366">GUE-NGL</tspan>
                            </text>
                        </g>
                        <g transform="translate(0.000000, 70.583811)">
                            <rect id="Rectangle-path" fill="#D3D3D3" x="0" y="4.10542636" width="10" height="25.6334876"></rect>
                            <text id="EFDD" fill="#000000" font-family="Lato-Regular, Lato" font-size="16" font-weight="normal">
                                <tspan x="16" y="16.5004648">EFDD</tspan>
                            </text>
                        </g>
                        <g transform="translate(0.000000, 107.507221)">
                            <rect id="Rectangle-path" fill="#D3D3D3" x="0" y="0" width="10" height="94.5313008"></rect>
                            <text id="S&amp;D" fill="#000000" font-family="Lato-Regular, Lato" font-size="16" font-weight="normal">
                                <tspan x="16" y="46.843945">S&amp;D</tspan>
                            </text>
                        </g>
                        <g transform="translate(0.000000, 209.223018)">
                            <rect id="Rectangle-path" fill="#D3D3D3" x="0" y="0" width="10" height="40.013249"></rect>
                            <text id="ECR" fill="#000000" font-family="Lato-Regular, Lato" font-size="16" font-weight="normal">
                                <tspan x="16" y="19.5849191">ECR</tspan>
                            </text>
                        </g>
                        <g transform="translate(0.000000, 256.420764)">
                            <rect id="Rectangle-path" fill="#D3D3D3" x="0" y="5.68434189e-14" width="10" height="133.794301"></rect>
                            <text id="EPP" fill="#000000" font-family="Lato-Regular, Lato" font-size="16" font-weight="normal">
                                <tspan x="16" y="66.4754453">EPP</tspan>
                            </text>
                        </g>
                        <g transform="translate(0.000000, 397.399561)">
                            <rect id="Rectangle-path" fill="#D3D3D3" x="0" y="-5.68434189e-14" width="10" height="37.7902907"></rect>
                            <text id="ALDE" fill="#000000" font-family="Lato-Regular, Lato" font-size="16" font-weight="normal">
                                <tspan x="16" y="18.4734399">ALDE</tspan>
                            </text>
                        </g>
                        <g transform="translate(0.000000, 442.374348)">
                            <rect id="Rectangle-path" fill="#D3D3D3" x="0" y="0" width="10" height="40.013249"></rect>
                            <text id="ENF" fill="#000000" font-family="Lato-Regular, Lato" font-size="16" font-weight="normal">
                                <tspan x="16" y="19.5849191">ENF</tspan>
                            </text>
                        </g>
                        <g transform="translate(978.000000, 3.079070)">
                            <rect id="Rectangle-path" fill="#D3D3D3" x="40" y="0" width="10" height="143.005685"></rect>
                            <text id="Art-3" fill="#000000" font-family="Lato-Regular, Lato" font-size="16" font-weight="normal">
                                <tspan x="0" y="71.081137">Art 3</tspan>
                            </text>
                        </g>
                        <g transform="translate(978.000000, 165.243411)">
                            <rect id="Rectangle-path" fill="#D3D3D3" x="40" y="0" width="10" height="143.005685"></rect>
                            <text id="Art-4" fill="#000000" font-family="Lato-Regular, Lato" font-size="16" font-weight="normal">
                                <tspan x="0" y="71.081137">Art 4</tspan>
                            </text>
                        </g>
                        <g transform="translate(978.000000, 327.407752)">
                            <rect id="Rectangle-path" fill="#D3D3D3" x="40" y="0" width="10" height="143.005685"></rect>
                            <text id="Art-5" fill="#000000" font-family="Lato-Regular, Lato" font-size="16" font-weight="normal">
                                <tspan x="0" y="71.081137">Art 5</tspan>
                            </text>
                        </g>
                    </g>
                </g>
            </g>
        </g>
    </g>
</svg>