<?xml version="1.0" encoding="UTF-8"?>
<svg width="190px" height="128px" viewBox="0 0 190 128" version="1.1" xmlns="http://www.w3.org/2000/svg" xmlns:xlink="http://www.w3.org/1999/xlink">
    <!-- Generator: Sketch 41.2 (35397) - http://www.bohemiancoding.com/sketch -->
    <title>aboada-logo-spline-open-circles-inverted-small-caps</title>
    <desc>Created with Sketch.</desc>
    <defs></defs>
    <g id="Page-1" stroke="none" stroke-width="1" fill="none" fill-rule="evenodd">
        <g id="aboada-logo-spline-open-circles-inverted-small-caps" transform="translate(-53.000000, 0.000000)">
            <path d="M92.0864062,95.88 L87.6464062,95.88 L87.6464062,104.91 L87.5864062,104.91 C86.9264062,103.77 85.5164063,102.96 83.5664062,102.96 C79.9664063,102.96 76.8164062,106.08 76.8164062,111.78 C76.8164062,116.85 79.5164063,120.33 83.2964063,120.33 C85.3364062,120.33 87.1364062,119.28 88.0064062,117.63 L88.0964063,117.63 L88.3064062,120 L92.2064063,120 C92.1464062,118.77 92.0864062,116.91 92.0864062,115.23 L92.0864062,95.88 Z M87.6464062,113.16 C87.6464062,115.8 85.9664063,116.76 84.6464062,116.76 C82.5464063,116.76 81.2864062,114.75 81.2864062,111.72 C81.2864062,108.81 82.4264062,106.47 84.7064063,106.47 C86.1764062,106.47 87.6464062,107.67 87.6464062,110.1 L87.6464062,113.16 Z M107.586406,109.92 C107.586406,106.26 106.176406,102.96 100.986406,102.96 C98.3764063,102.96 96.3064062,103.71 95.1964062,104.37 L96.0364062,107.25 C97.1164062,106.59 98.6164062,106.11 100.146406,106.11 C102.576406,106.11 103.146406,107.37 103.146406,109.02 C97.8364062,109.02 94.0264063,111.03 94.0264063,115.32 C94.0264063,118.02 95.9464062,120.33 99.0364062,120.33 C100.896406,120.33 102.516406,119.58 103.476406,118.26 L103.566406,118.26 L103.836406,120 L107.826406,120 C107.646406,118.98 107.586406,117.51 107.586406,116.04 L107.586406,109.92 Z M103.266406,114.27 C103.266406,116.4 101.526406,117.15 100.476406,117.15 C99.3664062,117.15 98.3764063,116.46 98.3764063,114.87 C98.3764063,112.44 100.866406,111.87 103.266406,111.87 L103.266406,114.27 Z M111.266406,103.29 L109.076406,103.29 L109.076406,106.56 L111.266406,106.56 L111.266406,114.27 C111.266406,116.13 111.356406,120.3 116.156406,120.3 C117.446406,120.3 118.526406,120.15 119.126406,119.91 L119.066406,116.52 C118.616406,116.61 118.256406,116.67 117.626406,116.67 C116.276406,116.67 115.646406,115.83 115.646406,113.82 L115.646406,106.56 L119.336406,106.56 L119.336406,103.29 L115.646406,103.29 L115.646406,98.94 L111.266406,100.23 L111.266406,103.29 Z M133.576406,109.92 C133.576406,106.26 132.166406,102.96 126.976406,102.96 C124.366406,102.96 122.296406,103.71 121.186406,104.37 L122.026406,107.25 C123.106406,106.59 124.606406,106.11 126.136406,106.11 C128.566406,106.11 129.136406,107.37 129.136406,109.02 C123.826406,109.02 120.016406,111.03 120.016406,115.32 C120.016406,118.02 121.936406,120.33 125.026406,120.33 C126.886406,120.33 128.506406,119.58 129.466406,118.26 L129.556406,118.26 L129.826406,120 L133.816406,120 C133.636406,118.98 133.576406,117.51 133.576406,116.04 L133.576406,109.92 Z M129.256406,114.27 C129.256406,116.4 127.516406,117.15 126.466406,117.15 C125.356406,117.15 124.366406,116.46 124.366406,114.87 C124.366406,112.44 126.856406,111.87 129.256406,111.87 L129.256406,114.27 Z M154.496406,109.92 C154.496406,106.26 153.086406,102.96 147.896406,102.96 C145.286406,102.96 143.216406,103.71 142.106406,104.37 L142.946406,107.25 C144.026406,106.59 145.526406,106.11 147.056406,106.11 C149.486406,106.11 150.056406,107.37 150.056406,109.02 C144.746406,109.02 140.936406,111.03 140.936406,115.32 C140.936406,118.02 142.856406,120.33 145.946406,120.33 C147.806406,120.33 149.426406,119.58 150.386406,118.26 L150.476406,118.26 L150.746406,120 L154.736406,120 C154.556406,118.98 154.496406,117.51 154.496406,116.04 L154.496406,109.92 Z M150.176406,114.27 C150.176406,116.4 148.436406,117.15 147.386406,117.15 C146.276406,117.15 145.286406,116.46 145.286406,114.87 C145.286406,112.44 147.776406,111.87 150.176406,111.87 L150.176406,114.27 Z M167.896406,103.32 L167.716406,105.3 L167.656406,105.3 C166.906406,103.98 165.556406,102.96 163.456406,102.96 C159.766406,102.96 156.556406,106.23 156.556406,111.75 C156.556406,116.31 159.046406,119.88 163.006406,119.88 C164.836406,119.88 166.336406,119.07 167.176406,117.75 L167.236406,117.75 L167.236406,118.98 C167.236406,122.19 165.586406,123.6 163.096406,123.6 C161.326406,123.6 159.766406,123.06 158.776406,122.52 L157.906406,125.91 C159.226406,126.66 161.236406,127.05 163.186406,127.05 C171.316406,127.05 171.616406,120.99 171.616406,117.72 L171.616406,108.3 C171.616406,105.99 171.676406,104.52 171.766406,103.32 L167.896406,103.32 Z M167.176406,113.04 C167.176406,115.86 165.376406,116.52 164.356406,116.52 C162.256406,116.52 161.026406,114.54 161.026406,111.63 C161.026406,108.48 162.376406,106.44 164.386406,106.44 C165.886406,106.44 167.176406,107.67 167.176406,109.8 L167.176406,113.04 Z M186.606406,116.28 C185.466406,116.67 184.176406,116.97 182.526406,116.97 C180.126406,116.97 178.086406,115.83 177.966406,112.98 L187.956406,112.98 C188.046406,112.5 188.076406,111.87 188.076406,111.21 C188.076406,105.81 185.436406,102.93 181.386406,102.93 C176.496406,102.93 173.736406,107.07 173.736406,111.87 C173.736406,117.06 176.676406,120.3 181.836406,120.3 C183.906406,120.3 185.856406,119.94 187.236406,119.34 L186.606406,116.28 Z M177.966406,109.89 C178.086406,108.24 178.986406,106.02 181.116406,106.02 C183.306406,106.02 183.996406,108.15 183.966406,109.89 L177.966406,109.89 Z M204.446406,109.77 C204.446406,105.09 202.076406,102.96 199.016406,102.96 C196.586406,102.96 194.936406,104.34 194.186406,105.57 L194.096406,105.57 L193.886406,103.32 L190.046406,103.32 C190.106406,104.79 190.166406,106.38 190.166406,108.33 L190.166406,120 L194.606406,120 L194.606406,110.07 C194.606406,107.52 196.256406,106.59 197.456406,106.59 C199.346406,106.59 200.006406,108.21 200.006406,110.25 L200.006406,120 L204.446406,120 L204.446406,109.77 Z M218.146406,116.25 C217.426406,116.58 216.556406,116.79 215.446406,116.79 C212.896406,116.79 211.006406,114.9 211.006406,111.63 C211.006406,108.69 212.626406,106.44 215.416406,106.44 C216.646406,106.44 217.456406,106.71 218.026406,106.98 L218.746406,103.59 C218.026406,103.29 216.706406,102.96 215.266406,102.96 C209.746406,102.96 206.506406,106.8 206.506406,111.81 C206.506406,117.12 209.686406,120.3 214.576406,120.3 C216.346406,120.3 217.876406,119.94 218.626406,119.58 L218.146406,116.25 Z M229.686406,103.29 L227.586406,112.02 C227.346406,113.07 227.076406,114.24 226.896406,115.14 L226.806406,115.14 C226.596406,114.21 226.296406,113.04 226.026406,112.02 L223.566406,103.29 L218.706406,103.29 L224.316406,118.65 C224.436406,118.98 224.496406,119.22 224.496406,119.4 C224.496406,119.73 223.746406,121.44 222.276406,122.49 C221.496406,123.03 220.656406,123.51 219.936406,123.72 L221.046406,127.47 C222.036406,127.29 223.746406,126.69 225.366406,125.13 C227.256406,123.24 228.666406,120.3 230.526406,114.9 L234.306406,103.29 L229.686406,103.29 Z" id="data-agency" fill="#ffa00a"></path>
            <path d="M127.610912,87.952 C127.610912,85.756 126.764912,83.776 123.650912,83.776 C122.084912,83.776 120.842912,84.226 120.176912,84.622 L120.680912,86.35 C121.328912,85.954 122.228912,85.666 123.146912,85.666 C124.604912,85.666 124.946912,86.422 124.946912,87.412 C121.760912,87.412 119.474912,88.618 119.474912,91.192 C119.474912,92.812 120.626912,94.198 122.480912,94.198 C123.596912,94.198 124.568912,93.748 125.144912,92.956 L125.198912,92.956 L125.360912,94 L127.754912,94 C127.646912,93.388 127.610912,92.506 127.610912,91.624 L127.610912,87.952 Z M125.018912,90.562 C125.018912,91.84 123.974912,92.29 123.344912,92.29 C122.678912,92.29 122.084912,91.876 122.084912,90.922 C122.084912,89.464 123.578912,89.122 125.018912,89.122 L125.018912,90.562 Z M134.538912,85.18 L134.538912,79.528 L131.874912,79.528 L131.874912,91.12 C131.874912,92.146 131.838912,93.28 131.802912,94 L134.070912,94 L134.196912,92.614 L134.250912,92.614 C134.880912,93.748 135.834912,94.198 136.950912,94.198 C139.020912,94.198 141.054912,92.434 141.054912,88.798 C141.054912,85.81 139.578912,83.758 137.364912,83.758 C136.086912,83.758 135.150912,84.298 134.574912,85.18 L134.538912,85.18 Z M134.538912,88.042 C134.538912,86.746 135.420912,85.882 136.338912,85.882 C137.706912,85.882 138.372912,87.214 138.372912,88.924 C138.372912,90.868 137.634912,92.074 136.338912,92.074 C135.276912,92.074 134.538912,91.138 134.538912,90.004 L134.538912,88.042 Z M144.698912,81.238 C144.698912,80.41 144.122912,79.816 143.258912,79.816 C142.430912,79.816 141.836912,80.41 141.836912,81.238 C141.836912,82.048 142.412912,82.66 143.258912,82.66 C144.086912,82.66 144.698912,82.102 144.698912,81.238 Z M144.608912,83.974 L141.944912,83.974 L141.944912,94 L144.608912,94 L144.608912,83.974 Z M146.434912,83.974 L145.120912,83.974 L145.120912,85.936 L146.434912,85.936 L146.434912,90.562 C146.434912,91.678 146.488912,94.18 149.368912,94.18 C150.142912,94.18 150.790912,94.09 151.150912,93.946 L151.114912,91.912 C150.844912,91.966 150.628912,92.002 150.250912,92.002 C149.440912,92.002 149.062912,91.498 149.062912,90.292 L149.062912,85.936 L151.276912,85.936 L151.276912,83.974 L149.062912,83.974 L149.062912,81.364 L146.434912,82.138 L146.434912,83.974 Z M158.996912,83.758 C156.278912,83.758 154.244912,85.666 154.244912,89.032 C154.244912,92.29 156.188912,94.198 158.888912,94.198 C161.120912,94.198 163.568912,92.722 163.568912,88.906 C163.568912,85.864 161.804912,83.758 158.996912,83.758 Z M160.868912,88.96 C160.868912,90.742 160.184912,92.236 158.924912,92.236 C157.628912,92.236 156.944912,90.76 156.944912,88.978 C156.944912,87.448 157.466912,85.72 158.942912,85.72 C160.310912,85.72 160.868912,87.394 160.868912,88.96 Z M164.836912,83.974 L163.504912,83.974 L163.504912,85.936 L164.836912,85.936 L164.836912,94 L167.500912,94 L167.500912,85.936 L169.480912,85.936 L169.480912,83.974 L167.482912,83.974 C167.482912,82.966 167.482912,81.454 168.976912,81.454 C169.390912,81.454 169.696912,81.526 169.948912,81.616 L170.146912,79.564 C169.750912,79.438 169.228912,79.33 168.562912,79.33 C166.600912,79.33 164.836912,80.536 164.836912,83.56 L164.836912,83.974 Z M180.242912,87.952 C180.242912,85.756 179.396912,83.776 176.282912,83.776 C174.716912,83.776 173.474912,84.226 172.808912,84.622 L173.312912,86.35 C173.960912,85.954 174.860912,85.666 175.778912,85.666 C177.236912,85.666 177.578912,86.422 177.578912,87.412 C174.392912,87.412 172.106912,88.618 172.106912,91.192 C172.106912,92.812 173.258912,94.198 175.112912,94.198 C176.228912,94.198 177.200912,93.748 177.776912,92.956 L177.830912,92.956 L177.992912,94 L180.386912,94 C180.278912,93.388 180.242912,92.506 180.242912,91.624 L180.242912,87.952 Z M177.650912,90.562 C177.650912,91.84 176.606912,92.29 175.976912,92.29 C175.310912,92.29 174.716912,91.876 174.716912,90.922 C174.716912,89.464 176.210912,89.122 177.650912,89.122 L177.650912,90.562 Z" id="a-bit-of-a" fill="#ffa00a"></path>
            <path d="M60.3120275,115 C51.2070456,125.797886 91.1637867,16.5499267 128.411868,59.4178316 C165.65995,102.285737 234.312027,43 234.312027,43" id="Path" stroke="#ffa00a"></path>
            <path d="M76.5,73.6709184 L76.5,49" id="Line" stroke="#ffa00a" stroke-linecap="square"></path>
            <path d="M105.5,49.4987245 L105.5,13" id="Line" stroke="#ffa00a" stroke-linecap="square"></path>
            <path d="M198.5,65.4464286 L198.5,55.5" id="Line" stroke="#ffa00a" stroke-linecap="square"></path>
            <path d="M153.5,72.7755102 L153.5,52" id="Line" stroke="#ffa00a" stroke-linecap="square"></path>
            <circle id="Oval" stroke="#ffa00a" cx="76.5" cy="40.5" r="8.5"></circle>
            <circle id="Oval" fill="#ffa00a" cx="237.5" cy="39.5" r="5.5"></circle>
            <circle id="Oval" fill="#ffa00a" cx="58.5" cy="120.5" r="5.5"></circle>
            <circle id="Oval" stroke="#ffa00a" cx="105" cy="7" r="6"></circle>
            <ellipse id="Oval" stroke="#ffa00a" cx="198.5" cy="47.5" rx="6.5" ry="6.5"></ellipse>
            <ellipse id="Oval" stroke="#ffa00a" cx="153.5" cy="45.5" rx="6.5" ry="6.5"></ellipse>
        </g>
    </g>
</svg>